<svg xmlns="http://www.w3.org/2000/svg" width="60" height="60" fill="none" viewBox="0 0 60 60"><path fill="url(#paint0_linear_264_12364)" fill-rule="evenodd" d="M7 2C4.79086 2 3 3.79086 3 6V27C3 29.2091 4.79086 31 7 31H31.0277L39.1919 40.9786L38.3604 31H41C43.2091 31 45 29.2091 45 27V6C45 3.79086 43.2091 2 41 2H7Z" clip-rule="evenodd"/><mask id="mask0_264_12364" width="43" height="40" x="14" y="18" maskUnits="userSpaceOnUse" style="mask-type:alpha"><path fill="url(#paint1_linear_264_12364)" fill-rule="evenodd" d="M53 18.0005C55.2091 18.0005 57 19.7914 57 22.0005V42.7238C57 44.9329 55.2091 46.7238 53 46.7238H29.2687L20.8085 57.0641L21.6702 46.7238H18.4895C16.2804 46.7238 14.4895 44.9329 14.4895 42.7238V22.0005C14.4895 19.7913 16.2804 18.0005 18.4895 18.0005H53Z" clip-rule="evenodd"/></mask><g mask="url(#mask0_264_12364)"><g filter="url(#filter0_b_264_12364)"><path fill="url(#paint2_linear_264_12364)" fill-rule="evenodd" d="M53 18.0005C55.2091 18.0005 57 19.7914 57 22.0005V42.7238C57 44.9329 55.2091 46.7238 53 46.7238H29.2687L20.8085 57.0641L21.6702 46.7238H18.4895C16.2804 46.7238 14.4895 44.9329 14.4895 42.7238V22.0005C14.4895 19.7913 16.2804 18.0005 18.4895 18.0005H53Z" clip-rule="evenodd"/></g><g filter="url(#filter1_f_264_12364)"><ellipse cx="13.928" cy="22.708" fill="#EDA54D" rx="12.907" ry="12.022"/></g><g filter="url(#filter2_f_264_12364)"><ellipse cx="59.885" cy="59.474" fill="#95F0FB" rx="12.907" ry="12.022"/></g></g><mask id="path-6-inside-1_264_12364" fill="#fff"><path fill-rule="evenodd" d="M53 18C55.2091 18 57 19.7909 57 22V42.7233C57 44.9324 55.2091 46.7233 53 46.7233H30.9836C29.8982 46.7233 28.8701 47.2105 28.1828 48.0505L25.7202 51.0603C24.2215 52.8921 21.2561 51.6924 21.4526 49.3338C21.5697 47.9285 20.4607 46.7233 19.0506 46.7233H18.4895C16.2804 46.7233 14.4895 44.9324 14.4895 42.7233V22C14.4895 19.7909 16.2804 18 18.4895 18H53Z" clip-rule="evenodd"/></mask><path fill="url(#paint3_linear_264_12364)" d="M25.7202 51.0603L26.1072 51.377L25.7202 51.0603ZM28.1828 48.0505L28.5697 48.3672L28.1828 48.0505ZM56.5 22C56.5 20.067 54.933 18.5 53 18.5V17.5C55.4853 17.5 57.5 19.5147 57.5 22H56.5ZM56.5 42.7233V22H57.5V42.7233H56.5ZM53 46.2233C54.933 46.2233 56.5 44.6563 56.5 42.7233H57.5C57.5 45.2086 55.4853 47.2233 53 47.2233V46.2233ZM30.9836 46.2233H53V47.2233H30.9836V46.2233ZM25.3332 50.7437L27.7958 47.7339L28.5697 48.3672L26.1072 51.377L25.3332 50.7437ZM18.4895 46.2233H19.0506V47.2233H18.4895V46.2233ZM14.9895 42.7233C14.9895 44.6563 16.5565 46.2233 18.4895 46.2233V47.2233C16.0043 47.2233 13.9895 45.2086 13.9895 42.7233H14.9895ZM14.9895 22V42.7233H13.9895V22H14.9895ZM18.4895 18.5C16.5565 18.5 14.9895 20.067 14.9895 22H13.9895C13.9895 19.5147 16.0043 17.5 18.4895 17.5V18.5ZM53 18.5H18.4895V17.5H53V18.5ZM20.9543 49.2923C21.0472 48.1785 20.1682 47.2233 19.0506 47.2233V46.2233C20.7533 46.2233 22.0923 47.6785 21.9509 49.3754L20.9543 49.2923ZM26.1072 51.377C24.2976 53.5887 20.717 52.1401 20.9543 49.2923L21.9509 49.3754C21.7951 51.2447 24.1454 52.1955 25.3332 50.7437L26.1072 51.377ZM30.9836 47.2233C30.0482 47.2233 29.1621 47.6432 28.5697 48.3672L27.7958 47.7339C28.5781 46.7778 29.7482 46.2233 30.9836 46.2233V47.2233Z" mask="url(#path-6-inside-1_264_12364)"/><rect width="24" height="2" x="22" y="26" fill="#1A1919" rx="1"/><rect width="14" height="2" x="22" y="31" fill="#1A1919" rx="1"/><defs><filter id="filter0_b_264_12364" width="52.511" height="49.063" x="9.489" y="13.001" color-interpolation-filters="sRGB" filterUnits="userSpaceOnUse"><feFlood flood-opacity="0" result="BackgroundImageFix"/><feGaussianBlur in="BackgroundImage" stdDeviation="2.5"/><feComposite in2="SourceAlpha" operator="in" result="effect1_backgroundBlur_264_12364"/><feBlend in="SourceGraphic" in2="effect1_backgroundBlur_264_12364" mode="normal" result="shape"/></filter><filter id="filter1_f_264_12364" width="77.814" height="76.043" x="-24.98" y="-15.314" color-interpolation-filters="sRGB" filterUnits="userSpaceOnUse"><feFlood flood-opacity="0" result="BackgroundImageFix"/><feBlend in="SourceGraphic" in2="BackgroundImageFix" mode="normal" result="shape"/><feGaussianBlur result="effect1_foregroundBlur_264_12364" stdDeviation="13"/></filter><filter id="filter2_f_264_12364" width="77.814" height="76.043" x="20.977" y="21.452" color-interpolation-filters="sRGB" filterUnits="userSpaceOnUse"><feFlood flood-opacity="0" result="BackgroundImageFix"/><feBlend in="SourceGraphic" in2="BackgroundImageFix" mode="normal" result="shape"/><feGaussianBlur result="effect1_foregroundBlur_264_12364" stdDeviation="13"/></filter><linearGradient id="paint0_linear_264_12364" x1="24.256" x2="24.256" y1="1.915" y2="40.979" gradientUnits="userSpaceOnUse"><stop stop-color="#BE9361"/><stop offset="1" stop-color="#A07041"/></linearGradient><linearGradient id="paint1_linear_264_12364" x1="35.745" x2="35.745" y1="18" y2="57.064" gradientUnits="userSpaceOnUse"><stop stop-color="#1C1B1A" stop-opacity=".31"/><stop offset="1" stop-color="#2E2D2D"/></linearGradient><linearGradient id="paint2_linear_264_12364" x1="35.745" x2="35.745" y1="18" y2="57.064" gradientUnits="userSpaceOnUse"><stop stop-color="#1C1B1A" stop-opacity=".31"/><stop offset="1" stop-color="#2E2D2D"/></linearGradient><linearGradient id="paint3_linear_264_12364" x1="35.745" x2="35.745" y1="18" y2="33.635" gradientUnits="userSpaceOnUse"><stop stop-color="#606060"/><stop offset="1" stop-color="#292725" stop-opacity="0"/></linearGradient></defs></svg>