<svg xmlns="http://www.w3.org/2000/svg" width="186" height="154" fill="none" viewBox="0 0 186 154"><path fill="url(#system-down_paint0_linear)" d="M105 0L186 49.4998V99L105 49.4998V0Z"/><path fill="url(#system-down_paint1_linear)" d="M105 154L186 105V56L105 105V154Z"/><path fill="url(#system-down_paint2_linear)" d="M105 0L26 49.4998V99L105 49.4998V0Z"/><path fill="url(#system-down_paint3_linear)" d="M105 154L26 105V56L105 105V154Z"/><g filter="url(#filter0_d)"><line x1="72.924" x2="43.951" y1="77.071" y2="64.326" stroke="url(#system-down_paint4_linear)" stroke-width="4"/><line x1="83.761" x2="54.787" y1="48.989" y2="36.244" stroke="url(#system-down_paint5_linear)" stroke-width="4"/><line x1="91.495" x2="62.522" y1="34.68" y2="21.935" stroke="url(#system-down_paint6_linear)" stroke-width="4"/><line x1="48.528" x2="19.555" y1="132.879" y2="120.134" stroke="url(#system-down_paint7_linear)" stroke-width="4"/><line x1="76.611" x2="47.638" y1="62.559" y2="49.814" stroke="url(#system-down_paint8_linear)" stroke-width="4"/><line x1="54.939" x2="25.966" y1="118.723" y2="105.978" stroke="url(#system-down_paint9_linear)" stroke-width="4"/><line x1="65.775" x2="36.802" y1="90.641" y2="77.896" stroke="url(#system-down_paint10_linear)" stroke-width="4"/><line x1="58.626" x2="29.653" y1="104.212" y2="91.467" stroke="url(#system-down_paint11_linear)" stroke-width="4"/><line x1="42.559" x2="93.893" y1="142.633" y2="24.012" stroke="url(#system-down_paint12_linear)" stroke-linecap="square" stroke-linejoin="round" stroke-width="4"/><line x1="13.077" x2="64.411" y1="131.288" y2="12.667" stroke="url(#system-down_paint13_linear)" stroke-linecap="square" stroke-linejoin="round" stroke-width="4"/></g><defs><filter id="filter0_d" width="94.076" height="143.226" x="6.447" y="6.037" color-interpolation-filters="sRGB" filterUnits="userSpaceOnUse"><feFlood flood-opacity="0" result="BackgroundImageFix"/><feColorMatrix in="SourceAlpha" type="matrix" values="0 0 0 0 0 0 0 0 0 0 0 0 0 0 0 0 0 0 127 0"/><feOffset/><feGaussianBlur stdDeviation="2"/><feColorMatrix type="matrix" values="0 0 0 0 0.4 0 0 0 0 0.4 0 0 0 0 0.4 0 0 0 0.25 0"/><feBlend in2="BackgroundImageFix" mode="normal" result="effect1_dropShadow"/><feBlend in="SourceGraphic" in2="effect1_dropShadow" mode="normal" result="shape"/></filter><linearGradient id="system-down_paint0_linear" x1="255.071" x2="55.329" y1="49.224" y2="49.224" gradientUnits="userSpaceOnUse"><stop stop-color="#996939"/><stop offset="1" stop-color="#D0A875"/></linearGradient><linearGradient id="system-down_paint1_linear" x1="145.5" x2="165.427" y1="154" y2="-33.425" gradientUnits="userSpaceOnUse"><stop stop-color="#272728"/><stop offset="1" stop-color="#4B4B4B"/></linearGradient><linearGradient id="system-down_paint2_linear" x1="105.488" x2="25.583" y1="20.295" y2="82.493" gradientUnits="userSpaceOnUse"><stop stop-color="#996939"/><stop offset="1" stop-color="#D0A875"/></linearGradient><linearGradient id="system-down_paint3_linear" x1="65.5" x2="65.5" y1="154" y2="56" gradientUnits="userSpaceOnUse"><stop stop-color="#363636"/><stop offset="1" stop-color="#333232"/></linearGradient><linearGradient id="system-down_paint4_linear" x1="73.991" x2="44.617" y1="75.131" y2="62.336" gradientUnits="userSpaceOnUse"><stop stop-color="#888"/><stop offset="1" stop-color="#D3D3D3"/></linearGradient><linearGradient id="system-down_paint5_linear" x1="84.827" x2="55.453" y1="47.049" y2="34.254" gradientUnits="userSpaceOnUse"><stop stop-color="#888"/><stop offset="1" stop-color="#D3D3D3"/></linearGradient><linearGradient id="system-down_paint6_linear" x1="92.562" x2="63.187" y1="32.74" y2="19.945" gradientUnits="userSpaceOnUse"><stop stop-color="#888"/><stop offset="1" stop-color="#D3D3D3"/></linearGradient><linearGradient id="system-down_paint7_linear" x1="49.595" x2="20.221" y1="130.939" y2="118.144" gradientUnits="userSpaceOnUse"><stop stop-color="#888"/><stop offset="1" stop-color="#D3D3D3"/></linearGradient><linearGradient id="system-down_paint8_linear" x1="77.678" x2="48.303" y1="60.62" y2="47.825" gradientUnits="userSpaceOnUse"><stop stop-color="#888"/><stop offset="1" stop-color="#D3D3D3"/></linearGradient><linearGradient id="system-down_paint9_linear" x1="56.006" x2="26.631" y1="116.783" y2="103.989" gradientUnits="userSpaceOnUse"><stop stop-color="#888"/><stop offset="1" stop-color="#D3D3D3"/></linearGradient><linearGradient id="system-down_paint10_linear" x1="66.842" x2="37.467" y1="88.702" y2="75.907" gradientUnits="userSpaceOnUse"><stop stop-color="#888"/><stop offset="1" stop-color="#D3D3D3"/></linearGradient><linearGradient id="system-down_paint11_linear" x1="59.693" x2="30.318" y1="102.272" y2="89.477" gradientUnits="userSpaceOnUse"><stop stop-color="#888"/><stop offset="1" stop-color="#D3D3D3"/></linearGradient><linearGradient id="system-down_paint12_linear" x1="43.462" x2="95.135" y1="146.099" y2="21.522" gradientUnits="userSpaceOnUse"><stop stop-color="#888"/><stop offset="1" stop-color="#D3D3D3"/></linearGradient><linearGradient id="system-down_paint13_linear" x1="13.98" x2="65.653" y1="134.755" y2="10.177" gradientUnits="userSpaceOnUse"><stop stop-color="#888"/><stop offset="1" stop-color="#D3D3D3"/></linearGradient></defs></svg>