<svg xmlns="http://www.w3.org/2000/svg" width="60" height="60" fill="none" viewBox="0 0 60 60"><g clip-path="url(#clip0_264_12748)"><mask id="mask0_264_12748" width="10" height="56" x="45" y="2" maskUnits="userSpaceOnUse" style="mask-type:alpha"><path fill="url(#paint0_linear_264_12748)" d="M55 53V7C55 4.23858 52.7614 2 50 2C47.2386 2 45 4.23858 45 7V53C45 55.7614 47.2386 58 50 58C52.7614 58 55 55.7614 55 53Z"/></mask><g mask="url(#mask0_264_12748)"><g filter="url(#filter0_b_264_12748)"><path fill="url(#paint1_linear_264_12748)" d="M55 53V7C55 4.23858 52.7614 2 50 2C47.2386 2 45 4.23858 45 7V53C45 55.7614 47.2386 58 50 58C52.7614 58 55 55.7614 55 53Z"/></g><g filter="url(#filter1_f_264_12748)"><ellipse cx="66.629" cy="41.969" fill="#95F0FB" rx="9.629" ry="8.969"/></g><path stroke="url(#paint2_linear_264_12748)" stroke-width=".5" d="M54.75 7V53C54.75 55.6234 52.6234 57.75 50 57.75C47.3766 57.75 45.25 55.6234 45.25 53V7C45.25 4.37665 47.3766 2.25 50 2.25C52.6234 2.25 54.75 4.37665 54.75 7Z"/></g><g filter="url(#filter2_d_264_12748)"><path fill="url(#paint3_linear_264_12748)" d="M53 53V22C53 20.3431 51.6569 19 50 19C48.3431 19 47 20.3431 47 22V53C47 54.6569 48.3431 56 50 56C51.6569 56 53 54.6569 53 53Z"/></g><mask id="mask1_264_12748" width="10" height="33" x="31" y="25" maskUnits="userSpaceOnUse" style="mask-type:alpha"><path fill="url(#paint4_linear_264_12748)" d="M41 53V30C41 27.2386 38.7614 25 36 25C33.2386 25 31 27.2386 31 30V53C31 55.7614 33.2386 58 36 58C38.7614 58 41 55.7614 41 53Z"/></mask><g mask="url(#mask1_264_12748)"><g filter="url(#filter3_b_264_12748)"><path fill="url(#paint5_linear_264_12748)" d="M41 53V30C41 27.2386 38.7614 25 36 25C33.2386 25 31 27.2386 31 30V53C31 55.7614 33.2386 58 36 58C38.7614 58 41 55.7614 41 53Z"/></g><g filter="url(#filter4_f_264_12748)"><ellipse cx="38.51" cy="46.098" fill="#EDA54D" rx="11.234" ry="10.463"/></g><g filter="url(#filter5_d_264_12748)"><path fill="#C9975A" d="M39 53V42C39 40.3431 37.6569 39 36 39C34.3431 39 33 40.3431 33 42V53C33 54.6569 34.3431 56 36 56C37.6569 56 39 54.6569 39 53Z"/></g><path stroke="url(#paint6_linear_264_12748)" stroke-width=".5" d="M40.75 30V53C40.75 55.6234 38.6234 57.75 36 57.75C33.3766 57.75 31.25 55.6234 31.25 53V30C31.25 27.3766 33.3766 25.25 36 25.25C38.6234 25.25 40.75 27.3766 40.75 30Z"/></g><mask id="mask2_264_12748" width="10" height="39" x="17" y="19" maskUnits="userSpaceOnUse" style="mask-type:alpha"><path fill="url(#paint7_linear_264_12748)" d="M27 53V24C27 21.2386 24.7614 19 22 19C19.2386 19 17 21.2386 17 24V53C17 55.7614 19.2386 58 22 58C24.7614 58 27 55.7614 27 53Z"/></mask><g mask="url(#mask2_264_12748)"><g filter="url(#filter6_b_264_12748)"><path fill="url(#paint8_linear_264_12748)" d="M27 53V24C27 21.2386 24.7614 19 22 19C19.2386 19 17 21.2386 17 24V53C17 55.7614 19.2386 58 22 58C24.7614 58 27 55.7614 27 53Z"/></g><g filter="url(#filter7_d_264_12748)"><path fill="url(#paint9_linear_264_12748)" d="M25 53V37C25 35.3431 23.6569 34 22 34C20.3431 34 19 35.3431 19 37V53C19 54.6569 20.3431 56 22 56C23.6569 56 25 54.6569 25 53Z"/></g><path stroke="url(#paint10_linear_264_12748)" stroke-width=".5" d="M26.75 24V53C26.75 55.6234 24.6234 57.75 22 57.75C19.3766 57.75 17.25 55.6234 17.25 53V24C17.25 21.3766 19.3766 19.25 22 19.25C24.6234 19.25 26.75 21.3766 26.75 24Z"/></g><mask id="mask3_264_12748" width="10" height="21" x="3" y="37" maskUnits="userSpaceOnUse" style="mask-type:alpha"><path fill="url(#paint11_linear_264_12748)" d="M13 53V42C13 39.2386 10.7614 37 8 37C5.23858 37 3 39.2386 3 42V53C3 55.7614 5.23858 58 8 58C10.7614 58 13 55.7614 13 53Z"/></mask><g mask="url(#mask3_264_12748)"><g filter="url(#filter8_b_264_12748)"><path fill="url(#paint12_linear_264_12748)" d="M13 53V42C13 39.2386 10.7614 37 8 37C5.23858 37 3 39.2386 3 42V53C3 55.7614 5.23858 58 8 58C10.7614 58 13 55.7614 13 53Z"/></g><g filter="url(#filter9_d_264_12748)"><path fill="#C9975A" d="M5 53C5 54.6569 6.34315 56 8 56C9.65685 56 11 54.6569 11 53C11 51.3431 9.65685 50 8 50C6.34315 50 5 51.3431 5 53Z"/></g><path stroke="url(#paint13_linear_264_12748)" stroke-width=".5" d="M12.75 42V53C12.75 55.6234 10.6234 57.75 8 57.75C5.37665 57.75 3.25 55.6234 3.25 53V42C3.25 39.3766 5.37665 37.25 8 37.25C10.6234 37.25 12.75 39.3766 12.75 42Z"/><g filter="url(#filter10_f_264_12748)"><ellipse cx="-2.371" cy="68.969" fill="#95F0FB" rx="9.629" ry="8.969"/></g></g></g><defs><filter id="filter0_b_264_12748" width="22" height="68" x="39" y="-4" color-interpolation-filters="sRGB" filterUnits="userSpaceOnUse"><feFlood flood-opacity="0" result="BackgroundImageFix"/><feGaussianBlur in="BackgroundImage" stdDeviation="3"/><feComposite in2="SourceAlpha" operator="in" result="effect1_backgroundBlur_264_12748"/><feBlend in="SourceGraphic" in2="effect1_backgroundBlur_264_12748" mode="normal" result="shape"/></filter><filter id="filter1_f_264_12748" width="71.258" height="69.938" x="31" y="7" color-interpolation-filters="sRGB" filterUnits="userSpaceOnUse"><feFlood flood-opacity="0" result="BackgroundImageFix"/><feBlend in="SourceGraphic" in2="BackgroundImageFix" mode="normal" result="shape"/><feGaussianBlur result="effect1_foregroundBlur_264_12748" stdDeviation="13"/></filter><filter id="filter2_d_264_12748" width="30" height="61" x="37" y="11" color-interpolation-filters="sRGB" filterUnits="userSpaceOnUse"><feFlood flood-opacity="0" result="BackgroundImageFix"/><feColorMatrix in="SourceAlpha" result="hardAlpha" type="matrix" values="0 0 0 0 0 0 0 0 0 0 0 0 0 0 0 0 0 0 127 0"/><feOffset dx="2" dy="4"/><feGaussianBlur stdDeviation="6"/><feComposite in2="hardAlpha" operator="out"/><feColorMatrix type="matrix" values="0 0 0 0 0.0901961 0 0 0 0 0.0862745 0 0 0 0 0.0862745 0 0 0 1 0"/><feBlend in2="BackgroundImageFix" mode="normal" result="effect1_dropShadow_264_12748"/><feBlend in="SourceGraphic" in2="effect1_dropShadow_264_12748" mode="normal" result="shape"/></filter><filter id="filter3_b_264_12748" width="22" height="45" x="25" y="19" color-interpolation-filters="sRGB" filterUnits="userSpaceOnUse"><feFlood flood-opacity="0" result="BackgroundImageFix"/><feGaussianBlur in="BackgroundImage" stdDeviation="3"/><feComposite in2="SourceAlpha" operator="in" result="effect1_backgroundBlur_264_12748"/><feBlend in="SourceGraphic" in2="effect1_backgroundBlur_264_12748" mode="normal" result="shape"/></filter><filter id="filter4_f_264_12748" width="74.468" height="72.927" x="1.276" y="9.634" color-interpolation-filters="sRGB" filterUnits="userSpaceOnUse"><feFlood flood-opacity="0" result="BackgroundImageFix"/><feBlend in="SourceGraphic" in2="BackgroundImageFix" mode="normal" result="shape"/><feGaussianBlur result="effect1_foregroundBlur_264_12748" stdDeviation="13"/></filter><filter id="filter5_d_264_12748" width="30" height="41" x="23" y="31" color-interpolation-filters="sRGB" filterUnits="userSpaceOnUse"><feFlood flood-opacity="0" result="BackgroundImageFix"/><feColorMatrix in="SourceAlpha" result="hardAlpha" type="matrix" values="0 0 0 0 0 0 0 0 0 0 0 0 0 0 0 0 0 0 127 0"/><feOffset dx="2" dy="4"/><feGaussianBlur stdDeviation="6"/><feComposite in2="hardAlpha" operator="out"/><feColorMatrix type="matrix" values="0 0 0 0 0.0901961 0 0 0 0 0.0862745 0 0 0 0 0.0862745 0 0 0 1 0"/><feBlend in2="BackgroundImageFix" mode="normal" result="effect1_dropShadow_264_12748"/><feBlend in="SourceGraphic" in2="effect1_dropShadow_264_12748" mode="normal" result="shape"/></filter><filter id="filter6_b_264_12748" width="22" height="51" x="11" y="13" color-interpolation-filters="sRGB" filterUnits="userSpaceOnUse"><feFlood flood-opacity="0" result="BackgroundImageFix"/><feGaussianBlur in="BackgroundImage" stdDeviation="3"/><feComposite in2="SourceAlpha" operator="in" result="effect1_backgroundBlur_264_12748"/><feBlend in="SourceGraphic" in2="effect1_backgroundBlur_264_12748" mode="normal" result="shape"/></filter><filter id="filter7_d_264_12748" width="30" height="46" x="9" y="26" color-interpolation-filters="sRGB" filterUnits="userSpaceOnUse"><feFlood flood-opacity="0" result="BackgroundImageFix"/><feColorMatrix in="SourceAlpha" result="hardAlpha" type="matrix" values="0 0 0 0 0 0 0 0 0 0 0 0 0 0 0 0 0 0 127 0"/><feOffset dx="2" dy="4"/><feGaussianBlur stdDeviation="6"/><feComposite in2="hardAlpha" operator="out"/><feColorMatrix type="matrix" values="0 0 0 0 0.0901961 0 0 0 0 0.0862745 0 0 0 0 0.0862745 0 0 0 1 0"/><feBlend in2="BackgroundImageFix" mode="normal" result="effect1_dropShadow_264_12748"/><feBlend in="SourceGraphic" in2="effect1_dropShadow_264_12748" mode="normal" result="shape"/></filter><filter id="filter8_b_264_12748" width="22" height="33" x="-3" y="31" color-interpolation-filters="sRGB" filterUnits="userSpaceOnUse"><feFlood flood-opacity="0" result="BackgroundImageFix"/><feGaussianBlur in="BackgroundImage" stdDeviation="3"/><feComposite in2="SourceAlpha" operator="in" result="effect1_backgroundBlur_264_12748"/><feBlend in="SourceGraphic" in2="effect1_backgroundBlur_264_12748" mode="normal" result="shape"/></filter><filter id="filter9_d_264_12748" width="30" height="30" x="-5" y="42" color-interpolation-filters="sRGB" filterUnits="userSpaceOnUse"><feFlood flood-opacity="0" result="BackgroundImageFix"/><feColorMatrix in="SourceAlpha" result="hardAlpha" type="matrix" values="0 0 0 0 0 0 0 0 0 0 0 0 0 0 0 0 0 0 127 0"/><feOffset dx="2" dy="4"/><feGaussianBlur stdDeviation="6"/><feComposite in2="hardAlpha" operator="out"/><feColorMatrix type="matrix" values="0 0 0 0 0.0901961 0 0 0 0 0.0862745 0 0 0 0 0.0862745 0 0 0 1 0"/><feBlend in2="BackgroundImageFix" mode="normal" result="effect1_dropShadow_264_12748"/><feBlend in="SourceGraphic" in2="effect1_dropShadow_264_12748" mode="normal" result="shape"/></filter><filter id="filter10_f_264_12748" width="71.258" height="69.938" x="-38" y="34" color-interpolation-filters="sRGB" filterUnits="userSpaceOnUse"><feFlood flood-opacity="0" result="BackgroundImageFix"/><feBlend in="SourceGraphic" in2="BackgroundImageFix" mode="normal" result="shape"/><feGaussianBlur result="effect1_foregroundBlur_264_12748" stdDeviation="13"/></filter><linearGradient id="paint0_linear_264_12748" x1="50" x2="50" y1="2" y2="58" gradientUnits="userSpaceOnUse"><stop stop-color="#272625" stop-opacity=".79"/><stop offset="1" stop-color="#272625"/></linearGradient><linearGradient id="paint1_linear_264_12748" x1="50" x2="50" y1="2" y2="58" gradientUnits="userSpaceOnUse"><stop stop-color="#1C1B1A" stop-opacity=".79"/><stop offset="1" stop-color="#1C1B1A"/></linearGradient><linearGradient id="paint2_linear_264_12748" x1="50" x2="50" y1="2" y2="27.79" gradientUnits="userSpaceOnUse"><stop stop-color="#606060"/><stop offset="1" stop-color="#292725" stop-opacity="0"/></linearGradient><linearGradient id="paint3_linear_264_12748" x1="50" x2="50" y1="19" y2="58.176" gradientUnits="userSpaceOnUse"><stop stop-color="#BE9361"/><stop offset="1" stop-color="#A07041"/></linearGradient><linearGradient id="paint4_linear_264_12748" x1="36" x2="36" y1="25" y2="58" gradientUnits="userSpaceOnUse"><stop stop-color="#272625" stop-opacity=".79"/><stop offset="1" stop-color="#272625"/></linearGradient><linearGradient id="paint5_linear_264_12748" x1="36" x2="36" y1="25" y2="58" gradientUnits="userSpaceOnUse"><stop stop-color="#1C1B1A" stop-opacity=".79"/><stop offset="1" stop-color="#1C1B1A"/></linearGradient><linearGradient id="paint6_linear_264_12748" x1="36" x2="36" y1="25" y2="40.197" gradientUnits="userSpaceOnUse"><stop stop-color="#606060"/><stop offset="1" stop-color="#292725" stop-opacity="0"/></linearGradient><linearGradient id="paint7_linear_264_12748" x1="22" x2="22" y1="19" y2="58" gradientUnits="userSpaceOnUse"><stop stop-color="#272625" stop-opacity=".79"/><stop offset="1" stop-color="#272625"/></linearGradient><linearGradient id="paint8_linear_264_12748" x1="22" x2="22" y1="19" y2="58" gradientUnits="userSpaceOnUse"><stop stop-color="#1C1B1A" stop-opacity=".79"/><stop offset="1" stop-color="#1C1B1A"/></linearGradient><linearGradient id="paint9_linear_264_12748" x1="22" x2="22" y1="34" y2="57.294" gradientUnits="userSpaceOnUse"><stop stop-color="#BE9361"/><stop offset="1" stop-color="#A07041"/></linearGradient><linearGradient id="paint10_linear_264_12748" x1="22" x2="22" y1="19" y2="36.961" gradientUnits="userSpaceOnUse"><stop stop-color="#606060"/><stop offset="1" stop-color="#292725" stop-opacity="0"/></linearGradient><linearGradient id="paint11_linear_264_12748" x1="8" x2="8" y1="37" y2="58" gradientUnits="userSpaceOnUse"><stop stop-color="#272625" stop-opacity=".79"/><stop offset="1" stop-color="#272625"/></linearGradient><linearGradient id="paint12_linear_264_12748" x1="8" x2="8" y1="37" y2="58" gradientUnits="userSpaceOnUse"><stop stop-color="#1C1B1A" stop-opacity=".79"/><stop offset="1" stop-color="#1C1B1A"/></linearGradient><linearGradient id="paint13_linear_264_12748" x1="8" x2="8" y1="37" y2="46.671" gradientUnits="userSpaceOnUse"><stop stop-color="#606060"/><stop offset="1" stop-color="#292725" stop-opacity="0"/></linearGradient><clipPath id="clip0_264_12748"><rect width="60" height="60" fill="#fff"/></clipPath></defs></svg>