<svg xmlns="http://www.w3.org/2000/svg" width="60" height="60" fill="none" viewBox="0 0 60 60"><g clip-path="url(#clip0_264_12682)"><mask id="mask0_264_12682" width="48" height="48" x="2" y="2" maskUnits="userSpaceOnUse" style="mask-type:alpha"><path fill="url(#paint0_linear_264_12682)" d="M40 2H12C6.47715 2 2 6.47715 2 12V40C2 45.5228 6.47715 50 12 50H40C45.5228 50 50 45.5228 50 40V12C50 6.47715 45.5228 2 40 2Z"/></mask><g mask="url(#mask0_264_12682)"><g filter="url(#filter0_b_264_12682)"><path fill="url(#paint1_linear_264_12682)" d="M40 2H12C6.47715 2 2 6.47715 2 12V40C2 45.5228 6.47715 50 12 50H40C45.5228 50 50 45.5228 50 40V12C50 6.47715 45.5228 2 40 2Z"/></g><path stroke="url(#paint2_linear_264_12682)" stroke-width=".5" d="M12 2.25H40C45.3848 2.25 49.75 6.61522 49.75 12V40C49.75 45.3848 45.3848 49.75 40 49.75H12C6.61522 49.75 2.25 45.3848 2.25 40V12C2.25 6.61522 6.61522 2.25 12 2.25Z"/><g filter="url(#filter1_f_264_12682)"><ellipse cx="26.438" cy="48.37" fill="#EDA54D" rx="9.629" ry="8.969"/></g><g filter="url(#filter2_f_264_12682)"><ellipse cx="37.629" cy="1.969" fill="#95F0FB" rx="9.629" ry="8.969"/></g></g><circle cx="19" cy="19" r="4" stroke="#C9975A" stroke-width="2"/><circle cx="33" cy="33" r="4" stroke="#C9975A" stroke-width="2"/><g filter="url(#filter3_d_264_12682)"><path stroke="#191818" stroke-linecap="round" stroke-linejoin="round" stroke-width="2" d="M18 34L34 18"/></g><g filter="url(#filter4_d_264_12682)"><path fill="url(#paint3_linear_264_12682)" d="M52.4789 48.025V38H43.5211V48.025H38L48 58L58 48.025H52.4789Z"/></g></g><defs><filter id="filter0_b_264_12682" width="60" height="60" x="-4" y="-4" color-interpolation-filters="sRGB" filterUnits="userSpaceOnUse"><feFlood flood-opacity="0" result="BackgroundImageFix"/><feGaussianBlur in="BackgroundImage" stdDeviation="3"/><feComposite in2="SourceAlpha" operator="in" result="effect1_backgroundBlur_264_12682"/><feBlend in="SourceGraphic" in2="effect1_backgroundBlur_264_12682" mode="normal" result="shape"/></filter><filter id="filter1_f_264_12682" width="71.258" height="69.938" x="-9.191" y="13.401" color-interpolation-filters="sRGB" filterUnits="userSpaceOnUse"><feFlood flood-opacity="0" result="BackgroundImageFix"/><feBlend in="SourceGraphic" in2="BackgroundImageFix" mode="normal" result="shape"/><feGaussianBlur result="effect1_foregroundBlur_264_12682" stdDeviation="13"/></filter><filter id="filter2_f_264_12682" width="71.258" height="69.938" x="2" y="-33" color-interpolation-filters="sRGB" filterUnits="userSpaceOnUse"><feFlood flood-opacity="0" result="BackgroundImageFix"/><feBlend in="SourceGraphic" in2="BackgroundImageFix" mode="normal" result="shape"/><feGaussianBlur result="effect1_foregroundBlur_264_12682" stdDeviation="13"/></filter><filter id="filter3_d_264_12682" width="20" height="20" x="16" y="16.5" color-interpolation-filters="sRGB" filterUnits="userSpaceOnUse"><feFlood flood-opacity="0" result="BackgroundImageFix"/><feColorMatrix in="SourceAlpha" result="hardAlpha" type="matrix" values="0 0 0 0 0 0 0 0 0 0 0 0 0 0 0 0 0 0 127 0"/><feOffset dy=".5"/><feGaussianBlur stdDeviation=".5"/><feComposite in2="hardAlpha" operator="out"/><feColorMatrix type="matrix" values="0 0 0 0 1 0 0 0 0 1 0 0 0 0 1 0 0 0 0.25 0"/><feBlend in2="BackgroundImageFix" mode="normal" result="effect1_dropShadow_264_12682"/><feBlend in="SourceGraphic" in2="effect1_dropShadow_264_12682" mode="normal" result="shape"/></filter><filter id="filter4_d_264_12682" width="44" height="44" x="28" y="30" color-interpolation-filters="sRGB" filterUnits="userSpaceOnUse"><feFlood flood-opacity="0" result="BackgroundImageFix"/><feColorMatrix in="SourceAlpha" result="hardAlpha" type="matrix" values="0 0 0 0 0 0 0 0 0 0 0 0 0 0 0 0 0 0 127 0"/><feOffset dx="2" dy="4"/><feGaussianBlur stdDeviation="6"/><feComposite in2="hardAlpha" operator="out"/><feColorMatrix type="matrix" values="0 0 0 0 0.0901961 0 0 0 0 0.0862745 0 0 0 0 0.0862745 0 0 0 1 0"/><feBlend in2="BackgroundImageFix" mode="normal" result="effect1_dropShadow_264_12682"/><feBlend in="SourceGraphic" in2="effect1_dropShadow_264_12682" mode="normal" result="shape"/></filter><linearGradient id="paint0_linear_264_12682" x1="26" x2="26" y1="2" y2="50" gradientUnits="userSpaceOnUse"><stop stop-color="#272625" stop-opacity=".79"/><stop offset="1" stop-color="#272625"/></linearGradient><linearGradient id="paint1_linear_264_12682" x1="26" x2="26" y1="2" y2="50" gradientUnits="userSpaceOnUse"><stop stop-color="#1C1B1A" stop-opacity=".79"/><stop offset="1" stop-color="#1C1B1A"/></linearGradient><linearGradient id="paint2_linear_264_12682" x1="26" x2="26" y1="2" y2="24.105" gradientUnits="userSpaceOnUse"><stop stop-color="#606060"/><stop offset="1" stop-color="#292725" stop-opacity="0"/></linearGradient><linearGradient id="paint3_linear_264_12682" x1="48" x2="48" y1="38" y2="59.176" gradientUnits="userSpaceOnUse"><stop stop-color="#BE9361"/><stop offset="1" stop-color="#A07041"/></linearGradient><clipPath id="clip0_264_12682"><rect width="60" height="60" fill="#fff"/></clipPath></defs></svg>